<?xml version="1.0" standalone="no"?><!DOCTYPE svg PUBLIC "-//W3C//DTD SVG 1.1//EN" "http://www.w3.org/Graphics/SVG/1.1/DTD/svg11.dtd"><svg t="1605272975169" class="icon" viewBox="0 0 1024 1024" version="1.1" xmlns="http://www.w3.org/2000/svg" p-id="2351" xmlns:xlink="http://www.w3.org/1999/xlink" width="200" height="200"><defs><style type="text/css"></style></defs><path d="M859.9 293.4m-26.2 0a26.2 26.2 0 1 0 52.4 0 26.2 26.2 0 1 0-52.4 0Z" fill="#46A8FF" p-id="2352"></path><path d="M163.4 638.8v266.9c0.3 20.5 22.7 33.2 40.8 23.7l138.3-71.7c13-6.7 28.5-6.5 41.2 0.7L494 920.5c12.6 7.1 28 7.5 40.9 0.9l126.3-64c13.1-6.6 28.7-6.2 41.4 1.2l117.9 68.8c17.3 10.1 39.8-1.8 40.1-21.8V638.8H163.4z" fill="#46A8FF" p-id="2353"></path><path d="M688.3 347.6h-350c-14.5 0-26.2-11.7-26.2-26.2s11.7-26.2 26.2-26.2h349.9c14.5 0 26.2 11.7 26.2 26.2 0.1 14.5-11.7 26.2-26.1 26.2zM688.3 506.3h-350c-14.5 0-26.2-11.7-26.2-26.2s11.7-26.2 26.2-26.2h349.9c14.5 0 26.2 11.7 26.2 26.2s-11.7 26.2-26.1 26.2zM688.3 665h-350c-14.5 0-26.2-11.7-26.2-26.2s11.7-26.2 26.2-26.2h349.9c14.5 0 26.2 11.7 26.2 26.2 0.1 14.4-11.7 26.2-26.1 26.2z" p-id="2354"></path><path d="M833 959c-8.9 0-17.7-2.3-25.7-7l-118.2-70.9c-4.8-2.8-10.9-3-16.1-0.3l-126.3 64c-20.8 10.5-45.3 10-65.6-1.5l-110.2-62.1c-5.1-2.9-11.2-3-16.3-0.3l-138.3 71.7c-16.9 8.8-36.8 8.1-53.1-1.7-16-9.6-25.8-26.4-26-45V126.2c0-33.7 27.5-61.1 61.1-61.2h627.3c33.7 0 61.2 27.5 61.2 61.2v71.6c0 14.5-11.7 26.2-26.2 26.2s-26.2-11.7-26.2-26.2v-71.6c0-4.8-4-8.8-8.8-8.8H198.4c-4.8 0-8.8 4-8.8 8.9v779.4c0.1 0 0.4 0.4 1 0.6 0.8 0.3 1.3 0 1.6-0.1l138.3-71.7c20.9-10.8 45.7-10.4 66.2 1.2l110.2 62.1c5 2.8 11 2.9 16.2 0.4l126.3-64c21.2-10.7 46-10 66.5 2l117.4 70.4c0.5-0.2 1.1-0.8 1.2-1.2V383.5c0-14.5 11.7-26.2 26.2-26.2s26.2 11.7 26.2 26.2v522.7c-0.3 18.9-10.9 36.5-27.7 46-8.3 4.5-17.3 6.8-26.2 6.8z" p-id="2355"></path></svg>